<svg id="Layer_1" data-name="Layer 1" xmlns="http://www.w3.org/2000/svg" viewBox="0 0 247.28 37.03">
  <defs>
    <style>
      .cls-1{fill:#fff}
    </style>
  </defs>
  <path class="cls-1" d="M52.63 13.32h2.85v16.91h7.72v2.51H52.63zM71 19a5.11 5.11 0 014.76 2.48h.08a12 12 0 010-1.32v-.75h2.56v13.33h-2.59v-1-1.34h-.08a5.15 5.15 0 01-4.87 2.71c-4 0-6.73-3-6.73-7.09A6.72 6.72 0 0171 19zm4.7 7a4.36 4.36 0 10-8.7 0 4.36 4.36 0 108.7 0zM88.39 19.38v2.49H85v10.87h-2.79V19.38zM96.42 19a5.11 5.11 0 014.76 2.48h.08c0-.28-.05-.62-.05-1.32v-.75h2.56v13.33h-2.56v-1c0-.59 0-1 .05-1.34h-.08a5.13 5.13 0 01-4.86 2.71c-4 0-6.73-3-6.73-7.09A6.71 6.71 0 0196.42 19zm4.69 7a4.36 4.36 0 10-8.7 0 4.36 4.36 0 108.7 0zM110.74 32.74l-4.63-13.36h3l3.44 10.9h.11l3.44-10.9h3l-4.61 13.36zM127.29 33.15a6.89 6.89 0 01-7.12-7.09 6.84 6.84 0 017.07-7.06c3.9 0 6.57 3 6.57 7.09a5.37 5.37 0 01-.08 1h-10.64a4 4 0 004.22 3.57 4.49 4.49 0 003.81-1.81l1.63 1.68a6.5 6.5 0 01-5.46 2.62zm-4.2-8.1H131a3.79 3.79 0 00-3.86-3.62 4 4 0 00-4.05 3.62zM136.59 13.32h2.79v17h3.34v2.46h-6.13zM158.77 32.74h-3.67l-6.48-19.42h3.06l5.23 16.62h.1l5.28-16.62h3zM172.16 33.15a6.89 6.89 0 01-7.16-7.09 6.84 6.84 0 017.11-7.06c3.91 0 6.58 3 6.58 7.09a6.36 6.36 0 01-.08 1H168a4 4 0 004.22 3.57 4.49 4.49 0 003.78-1.83l1.63 1.68a6.52 6.52 0 01-5.47 2.64zm-4.16-8.1h7.95a3.79 3.79 0 00-3.86-3.62 4 4 0 00-4.09 3.62zM187.65 19.38v2.49h-3.39v10.87h-2.8V19.38zM193.68 24.53l1.71.83c1.63.78 2.87 1.79 2.87 3.83 0 2.31-1.81 4-4.73 4a4.63 4.63 0 01-4.82-3.44l2.15-1.19a2.78 2.78 0 002.74 2.28c1.12 0 1.89-.57 1.89-1.63 0-.76-.51-1.25-1.76-1.82l-1.52-.72c-1.64-.75-2.9-1.68-2.9-3.88s1.84-3.79 4.32-3.79a4.7 4.7 0 014.63 3l-2 1.14a2.78 2.78 0 00-2.59-1.84c-1 0-1.76.57-1.76 1.45s.53 1.25 1.77 1.78zM200.91 15.55a1.67 1.67 0 011.71-1.68 1.68 1.68 0 110 3.36 1.67 1.67 0 01-1.71-1.68zm.31 17.19V19.38H204v13.36zM206.89 26.06a7.11 7.11 0 0114.21 0 7.11 7.11 0 01-14.21 0zm11.37 0a4.29 4.29 0 10-8.55 0 4.29 4.29 0 108.55 0zM235.11 19.38v13.36h-2.79V21.81h-5.54v10.93H224V19.38zM242.7 24.53l1.71.83c1.63.78 2.87 1.79 2.87 3.83 0 2.31-1.81 4-4.73 4a4.63 4.63 0 01-4.82-3.44l2.15-1.19a2.78 2.78 0 002.74 2.28c1.12 0 1.89-.57 1.89-1.63 0-.76-.51-1.25-1.76-1.82l-1.53-.72c-1.63-.75-2.9-1.68-2.9-3.88s1.84-3.79 4.33-3.79a4.72 4.72 0 014.63 3l-2 1.14a2.78 2.78 0 00-2.59-1.84c-1 0-1.76.57-1.76 1.45s.53 1.25 1.77 1.78z"/>
  <path d="M22.33 15.11V0H4.76v4.35H0V21.2L15.83 37h16.85v-4.32h4.76V15.11zM7.23 2.47h12.64v12.64H7.23zm12.64 15.1v10.9L9 17.57zm10.34 17H16.85L2.47 20.18V6.82h2.29v10l15.83 15.86h9.62zM35 30.21H22.33V17.57H35z" fill="#6bd6ff"/>
</svg>
